<svg xmlns="http://www.w3.org/2000/svg" viewBox="0 0 100 100" width="64" height="64">
  <rect width="100" height="100" fill="#000000" rx="0" />

  <path
    fill="#FFFFFF"
    transform="translate(50 33) scale(1.22) translate(-50 -33)"
    d="M 16.813 37.813 L 16.813 48 L 10.188 48 L 10.188 18.563 L 20.563 18.563 L 25.375 19.125 L 28.875 20.938 L 30.938 23.813 L 31.625 27.938 L 31.438 30.063 L 30.813 31.938 L 29.813 33.625 L 28.438 35.125 L 24.75 37.125 L 19.938 37.813 Z M 16.813 23.625 L 16.813 32.813 L 19.375 32.813 L 21.688 32.5 L 23.375 31.625 L 24.375 30.188 L 24.688 28.188 L 24.375 26.188 L 23.375 24.813 L 21.688 23.938 L 19.375 23.625 Z M 48.375 48.5 L 45.375 48.25 L 42.688 47.5 L 40.25 46.188 L 38.125 44.375 L 36.375 42.188 L 35.125 39.625 L 34.375 36.813 L 34.125 33.625 L 34.375 30.313 L 35.125 27.375 L 36.375 24.688 L 38.125 22.375 L 40.313 20.5 L 42.875 19.125 L 45.688 18.313 L 48.875 18.063 L 51.875 18.313 L 54.563 19.125 L 56.938 20.375 L 59.063 22.188 L 60.75 24.438 L 61.938 27 L 62.688 29.875 L 62.938 33.063 L 62.688 36.375 L 61.938 39.313 L 60.625 41.938 L 58.875 44.25 L 56.688 46.125 L 54.25 47.438 L 51.438 48.25 L 48.375 48.5 Z M 48.688 23.75 L 45.563 24.438 L 43.125 26.375 L 41.563 29.438 L 41.063 33.313 L 41.563 37.188 L 43.125 40.188 L 45.5 42.125 L 48.5 42.75 L 51.625 42.125 L 53.938 40.313 L 55.438 37.375 L 55.938 33.438 L 55.438 29.375 L 54 26.313 L 51.688 24.375 L 48.688 23.75 Z M 67.813 48 L 67.813 18.563 L 78.5 18.563 L 82.875 19 L 86.063 20.375 L 88.063 22.563 L 88.75 25.438 L 88.313 27.688 L 87.125 29.625 L 85.313 31.125 L 83 32.125 L 83 32.188 L 85.813 32.938 L 88 34.5 L 89.438 36.625 L 89.875 39.188 L 89.188 42.813 L 87 45.625 L 83.563 47.375 L 79.125 48 Z M 74.438 23.438 L 74.438 30.438 L 77.375 30.438 L 79.188 30.188 L 80.563 29.438 L 81.438 28.25 L 81.75 26.688 L 81.438 25.25 L 80.563 24.25 L 79.063 23.625 L 76.938 23.438 Z M 74.438 35.313 L 74.438 43.063 L 78 43.063 L 80.063 42.813 L 81.625 42 L 82.625 40.75 L 82.938 39.125 L 82.625 37.563 L 81.625 36.313 L 80.125 35.563 L 78.063 35.313 Z" />
  <path
    fill="#FFD700"
    transform="translate(50 75) scale(1.28) translate(-50 -75) translate(0 4)"
    d="M 37.502 82.404 L 21.084 74.916 L 21.084 72.068 L 37.502 64.211 L 37.502 68.395 L 25.795 73.404 L 25.795 73.51 L 37.502 78.221 Z M 58.385 58.305 L 46.098 87.695 L 41.141 87.695 L 53.375 58.305 Z M 78.916 74.688 L 62.498 82.176 L 62.498 78.01 L 74.24 73.316 L 74.24 73.246 L 62.498 68.219 L 62.498 64.035 L 78.916 71.84 Z" />
</svg>
