<svg width="32" height="32" viewBox="0 0 32 32" xmlns="http://www.w3.org/2000/svg">
  <defs>
    <linearGradient id="goldGradient" x1="0%" y1="0%" x2="100%" y2="100%">
      <stop offset="0%" style="stop-color:#FFD700;stop-opacity:1" />
      <stop offset="50%" style="stop-color:#FFA500;stop-opacity:1" />
      <stop offset="100%" style="stop-color:#FF8C00;stop-opacity:1" />
    </linearGradient>
    <linearGradient id="darkGradient" x1="0%" y1="0%" x2="100%" y2="100%">
      <stop offset="0%" style="stop-color:#1a1a1a;stop-opacity:1" />
      <stop offset="100%" style="stop-color:#2d2d2d;stop-opacity:1" />
    </linearGradient>
  </defs>
  
  <!-- Background circle -->
  <circle cx="16" cy="16" r="15" fill="url(#darkGradient)" stroke="url(#goldGradient)" stroke-width="1.5"/>
  
  <!-- Bingo grid pattern (3x3 for smaller size) -->
  <g transform="translate(8, 8)">
    <!-- Grid lines -->
    <g stroke="url(#goldGradient)" stroke-width="0.8" fill="none" opacity="0.7">
      <line x1="0" y1="0" x2="16" y2="0"/>
      <line x1="0" y1="8" x2="16" y2="8"/>
      <line x1="0" y1="16" x2="16" y2="16"/>
      
      <line x1="0" y1="0" x2="0" y2="16"/>
      <line x1="8" y1="0" x2="8" y2="16"/>
      <line x1="16" y1="0" x2="16" y2="16"/>
    </g>
    
    <!-- Center cell highlight -->
    <rect x="6" y="6" width="4" height="4" fill="url(#goldGradient)" opacity="0.9"/>
    
    <!-- Corner marked cells -->
    <g stroke="url(#goldGradient)" stroke-width="1" fill="none" opacity="0.8">
      <line x1="2" y1="2" x2="6" y2="6"/>
      <line x1="6" y1="2" x2="2" y2="6"/>
      <line x1="10" y1="2" x2="14" y2="6"/>
      <line x1="14" y1="2" x2="10" y2="6"/>
      <line x1="2" y1="10" x2="6" y2="14"/>
      <line x1="6" y1="10" x2="2" y2="14"/>
      <line x1="10" y1="10" x2="14" y2="14"/>
      <line x1="14" y1="10" x2="10" y2="14"/>
    </g>
  </g>
</svg>
